<?xml version="1.0" encoding="utf-8"?>
<!-- Generator: Adobe Illustrator 23.0.3, SVG Export Plug-In . SVG Version: 6.00 Build 0)  -->
<svg version="1.1" xmlns="http://www.w3.org/2000/svg" xmlns:xlink="http://www.w3.org/1999/xlink" x="0px" y="0px"
	 viewBox="0 0 2048 2048" style="enable-background:new 0 0 2048 2048;" xml:space="preserve">
<style type="text/css">
	.st0{fill:#333333;}
	.st1{fill:#F2F2F2;}
	.st2{fill:#FBDBA9;}
	.st3{fill:#999999;}
	.st4{fill:#FBB03B;}
	.st5{fill:#4D4D4D;}
	.st6{fill:#FBAE17;}
	.st7{fill:none;stroke:#000000;stroke-miterlimit:10;}
</style>
<g id="Layer_3">
	<rect class="st0" width="2048" height="2048"/>
	<g>
		<path class="st1" d="M2004.21,1804.21c0,110-90,200-200,200H243.79c-110,0-200-90-200-200V243.79c0-110,90-200,200-200h1560.42
			c110,0,200,90,200,200V1804.21z"/>
	</g>
</g>
<g id="Layer_4">
	<path class="st2" d="M1326.74,1186.52c-5.75,317.49-172.72,595.6-422.5,755.95c-19.93,12.79-40.39,24.84-61.33,36.09
		c-21.52-7.29-42.47-15.84-62.76-25.54c-142.86-68.3-253.05-193.98-300.71-347.21c66.06,152.4,196.34,270.48,356.71,320.1
		c246.7-129.91,427.03-368.87,476.88-652.77C1321.13,1245.55,1325.86,1216.52,1326.74,1186.52z"/>
	<path class="st0" d="M1087.39,1595.78c-16.72,1.46-33.64,2.21-50.74,2.21c-222.24,0-414.97-126.39-510.21-311.22
		c24.76-83.14,38.06-171.22,38.06-262.41C564.5,1324.07,794.35,1570.09,1087.39,1595.78z"/>
	<path class="st0" d="M564.5,1024.36c0-91.19-13.3-179.27-38.06-262.41c95.24-184.83,287.97-311.22,510.21-311.22
		c17.1,0,34.02,0.75,50.74,2.21C794.35,478.63,564.5,724.65,564.5,1024.36z"/>
	<path class="st3" d="M1961.24,1109.11c0,3.47-0.05,6.93-0.16,10.38c0.08-4.18,0.13-8.37,0.15-12.57
		C1961.24,1107.65,1961.24,1108.38,1961.24,1109.11z"/>
	<path class="st4" d="M1315.45,1119.85c-5.75,317.49-172.72,595.6-422.5,755.95c-19.93,12.79-40.39,24.84-61.33,36.09
		c-21.52-7.29-42.47-15.84-62.76-25.54c-142.86-68.3-253.05-193.98-300.71-347.21c66.06,152.4,196.34,270.48,356.71,320.1
		c246.7-129.91,427.03-368.87,476.88-652.77C1309.84,1178.88,1314.57,1149.85,1315.45,1119.85z"/>
	<path class="st3" d="M1961.24,1102.53c0,1.46,0,2.93-0.01,4.39c-0.03-6.09-0.23-12.15-0.59-18.16c-0.06-1.17-0.13-2.33-0.22-3.49
		c0.16-3.62,0.29-7.24,0.39-10.86c0.08,2.35,0.14,4.7,0.19,7.06C1961.16,1088.47,1961.24,1095.49,1961.24,1102.53z"/>
	<path class="st0" d="M1315.6,1107.29c-0.02,4.2-0.07,8.39-0.15,12.57c-0.88,30-5.61,59.03-13.71,86.62
		c-41.88,142.86-173.91,247.18-330.31,247.18c-190.08,0-344.18-154.1-344.18-344.18c0-6.83,0.2-13.62,0.6-20.35
		c10.53,180.61,160.33,323.82,343.58,323.82c178.36,0,325.05-135.68,342.45-309.46c0.36-5.93,0.67-11.88,0.91-17.85
		c0.09,1.16,0.16,2.32,0.22,3.49C1315.37,1095.14,1315.57,1101.2,1315.6,1107.29z"/>
	<path class="st3" d="M366.07,1604.05c-0.28-0.06-0.57-0.12-0.86-0.16c-0.31-0.26-0.61-0.52-0.91-0.79
		C364.89,1603.42,365.48,1603.74,366.07,1604.05z"/>
	<path d="M564.5,1024.36c0,91.19-13.3,179.27-38.06,262.41c-52.76,177.15-157.58,331.88-296.71,446.43
		c16.08-39.78,24.92-83.25,24.92-128.79c0-7.09-0.21-14.14-0.64-21.13c119-154.78,189.75-348.59,189.75-558.92
		c0-261.3-109.2-497.1-284.45-664.25c-6.41-45-21.54-87.2-43.62-124.83c195.72,116.57,344.39,303.89,410.75,526.67
		C551.2,845.09,564.5,933.17,564.5,1024.36z"/>
	<path class="st0" d="M1211.64,1050.96c0,120.54-92.95,219.37-211.08,228.72c-3.54,0.29-7.12,0.49-10.71,0.6h-0.05
		c-2.53,0.09-5.06,0.13-7.61,0.13c-3.61,0-7.2-0.08-10.77-0.25c2.55-0.12,5.09-0.28,7.62-0.48c3.61-0.28,7.2-0.65,10.76-1.11
		c112.96-14.31,200.3-110.75,200.3-227.61c0-116.85-87.34-213.3-200.3-227.61c-3.56-0.46-7.15-0.83-10.76-1.11
		c-2.53-0.2-5.07-0.36-7.62-0.48c3.57-0.17,7.16-0.25,10.77-0.25c2.55,0,5.08,0.04,7.61,0.13h0.05c3.59,0.11,7.17,0.31,10.71,0.6
		C1118.69,831.6,1211.64,930.42,1211.64,1050.96z"/>
	<path class="st0" d="M963.51,1279.66c2.63,0.21,5.26,0.38,7.91,0.5c-3.57,0.17-7.16,0.25-10.77,0.25c-2.65,0-5.29-0.04-7.92-0.14
		h-0.03c-3.59-0.12-7.16-0.32-10.7-0.61c-0.01,0-0.01,0-0.02,0c-117.99-9.5-210.78-108.26-210.78-228.7
		c0-120.43,92.79-219.2,210.78-228.7c0.01,0,0.01,0,0.02,0c3.54-0.29,7.11-0.49,10.7-0.61h0.03c2.63-0.1,5.27-0.14,7.92-0.14
		c3.61,0,7.2,0.08,10.77,0.25c-2.65,0.12-5.28,0.29-7.91,0.5h-0.03c-3.61,0.29-7.19,0.67-10.75,1.13h-0.01
		c-112.81,14.45-199.98,110.83-199.98,227.57c0,116.75,87.17,213.12,199.98,227.57h0.01c3.56,0.46,7.14,0.84,10.75,1.13H963.51z"/>
	<path class="st5" d="M1259.08,1156.96c-2.99,6.78-6.3,13.39-9.91,19.81c-23.73-36.13-37.53-79.36-37.53-125.81
		c0-40.78,10.64-79.08,29.29-112.26c4.2,6.39,8.08,13,11.64,19.81c-12.47,28.28-19.39,59.56-19.39,92.45
		C1233.18,1089.2,1242.53,1125.26,1259.08,1156.96z"/>
	<path class="st2" d="M1456.72,551.26c-162.94,272.55-168.2,596.89-40.93,865.04c10.16,21.39,21.16,42.44,32.99,63.05
		c22.12,5.19,44.42,9,66.78,11.49c157.37,17.53,317.34-30.91,438.8-135.79c-136.63,94.45-309.64,125.83-472,83.18
		c-140.75-240.68-167.52-538.85-59.78-806.19C1430.28,604.33,1441.61,577.19,1456.72,551.26z"/>
	<path class="st6" d="M1501.54,500.63c-162.94,272.55-168.2,596.89-40.93,865.04c10.16,21.39,21.16,42.44,32.99,63.05
		c22.12,5.19,44.42,9,66.78,11.49c157.37,17.53,317.34-30.91,438.8-135.79c-136.63,94.45-309.64,125.83-472,83.18
		c-140.75-240.68-167.52-538.85-59.78-806.19C1475.1,553.7,1486.43,526.56,1501.54,500.63z"/>
</g>
<g id="Layer_1">
	<path class="st5" d="M1813.58,657.05c-57.14,81.85-101.81,174.49-130.48,275.96c-5.12,18.1-9.65,36.23-13.62,54.37
		c-27.6,126.2-27.63,252.74-3.82,372.92c-30.1-47.66-48.82-103.23-52.34-162.89c1.28-35.25,4.63-70.7,10.12-106.2
		c5.69-36.88,13.69-73.82,24.1-110.65C1681.93,858.9,1739.29,749.94,1813.58,657.05z"/>
	<rect x="878.8" y="4117.22" class="st7" width="229.45" height="229.45"/>
	<rect x="1108.25" y="4117.22" class="st7" width="229.45" height="229.45"/>
	<rect x="878.8" y="3658.32" class="st7" width="458.9" height="458.9"/>
	<rect x="190.45" y="3658.32" class="st7" width="688.35" height="688.35"/>
	
		<rect x="190.45" y="2511.07" transform="matrix(-1.836970e-16 1 -1 -1.836970e-16 3848.7693 2320.6155)" class="st7" width="1147.25" height="1147.25"/>
	<circle class="st7" cx="3475.22" cy="1024" r="229.45"/>
	<circle class="st7" cx="3475.22" cy="1024" r="114.73"/>
	<circle class="st7" cx="3475.22" cy="1024" r="344.18"/>
	<rect x="-1645.15" y="2511.07" class="st7" width="1835.6" height="1835.6"/>
	<path class="st0" d="M1802.8,671.18c-57.14,81.85-101.81,174.49-130.48,275.96c-5.12,18.1-9.65,36.23-13.62,54.37
		c-27.6,126.2-27.63,252.74-3.82,372.92c-30.1-47.66-48.82-103.23-52.34-162.89c1.28-35.25,4.63-70.7,10.12-106.2
		c5.69-36.88,13.69-73.82,24.1-110.65C1671.15,873.03,1728.51,764.07,1802.8,671.18z"/>
	<path class="st0" d="M1928.15,701.03c-3.5,0.33-7.05,0.49-10.63,0.49c-63.36,0-114.72-51.36-114.72-114.72
		s51.36-114.73,114.72-114.73c3.58,0,7.13,0.16,10.63,0.49c-58.38,5.36-104.11,54.46-104.11,114.24
		C1824.04,646.58,1869.77,695.68,1928.15,701.03z"/>
</g>
<g id="Layer_2">
</g>
</svg>
