<?xml version="1.0" encoding="utf-8"?>
<!-- Generator: Adobe Illustrator 23.0.3, SVG Export Plug-In . SVG Version: 6.00 Build 0)  -->
<svg version="1.1" id="Layer_1" xmlns="http://www.w3.org/2000/svg" xmlns:xlink="http://www.w3.org/1999/xlink" x="0px" y="0px"
	 viewBox="0 0 100 28" style="enable-background:new 0 0 100 28;" xml:space="preserve">
<style type="text/css">
	.st0{fill:#FFFFFF;}
	.st1{fill:#ED1E79;}
	.st2{fill:#662D91;}
	.st3{fill:none;}
	.st4{font-family:'ArialNarrow-Bold';}
	.st5{font-size:20px;}
</style>
<g>
	
		<rect x="4.13" y="8.42" transform="matrix(0.7071 0.7071 -0.7071 0.7071 13.1999 -1.8416)" class="st0" width="9.39" height="13.19"/>
	<path class="st1" d="M15.25,21.84c-0.6-0.16-1.1-0.38-1.52-0.62c-3.3-1.9-3.87-6.29-3.97-7.22c0.33,0.08,0.64,0.19,0.91,0.31
		C14.08,15.83,15.02,20.47,15.25,21.84z"/>
	<path class="st2" d="M8.13,14.56c0.5-0.22,1.04-0.41,1.63-0.56c-0.18,1.66-1.18,9.45-7.05,12.83C1.97,27.26,1.07,27.66,0,27.94
		C0.41,25.51,2.08,17.26,8.13,14.56z"/>
	<path class="st1" d="M10.71,13.69c-0.29,0.12-0.61,0.23-0.95,0.31c0.1-0.93,0.69-5.32,4.1-7.22c0.43-0.24,0.95-0.46,1.57-0.62
		C15.2,7.53,14.23,12.17,10.71,13.69z"/>
	<path class="st2" d="M9.76,14c-0.59-0.15-1.13-0.33-1.63-0.56C2.08,10.74,0.41,2.49,0,0.06c1.07,0.28,1.97,0.69,2.71,1.12
		C8.58,4.55,9.58,12.34,9.76,14z"/>
</g>
<rect x="18.34" y="6.55" class="st3" width="81.66" height="14.91"/>
<text transform="matrix(1 0 0 1 18.341 20.8663)" class="st0 st4 st5">KyaLi Art</text>
</svg>
